<svg width="40" height="32" viewBox="0 0 40 32" fill="none" xmlns="http://www.w3.org/2000/svg">
<path d="M11.0708 27.6612L11.0055 27.7439C13.6227 29.0166 16.6288 29.7376 19.8111 29.8105L20.3487 29.8167C29.8603 29.8167 39.0573 22.2984 39.0642 13.4172C38.8117 5.82826 34.6948 1.11377 28.468 1.11377C25.0705 1.11377 21.9356 2.69574 19.9511 5.32052M11.0708 27.6612L12.2764 26.0704L14.0985 23.5921M11.0708 27.6612L10.3168 28.6131L9.87675 29.1353C9.8339 29.184 9.79307 29.2297 9.75428 29.2722C8.6775 30.4527 6.83058 30.5521 5.62907 29.4941C4.42756 28.4361 4.32644 26.6215 5.40322 25.441L5.72327 25.0678L6.15763 24.5259L7.12196 23.2667M14.0985 23.5921L14.5175 23.0093C16.2584 23.701 18.2357 24.076 20.3478 24.076C26.8468 24.076 33.2173 18.869 33.2232 13.5094C33.0689 8.90368 31.2793 6.85438 28.468 6.85438C27.0555 6.85438 25.751 7.45782 24.8563 8.47971L24.6181 8.77781L16.7246 19.946L14.0985 23.5921ZM19.9511 5.32052L20.2573 4.93469L20.3488 4.82766C18.3569 2.49899 15.4077 1.11377 12.2285 1.11377C6.00171 1.11377 1.88479 5.82826 1.63306 13.4826C1.73879 17.8967 3.47425 21.6227 6.25623 24.3962L7.12196 23.2667M19.9511 5.32052L16.7948 9.79166L16.0784 8.77781L15.8402 8.47971C14.9455 7.45782 13.641 6.85438 12.2285 6.85438C9.41715 6.85438 7.62761 8.90368 7.47334 13.5094C7.53214 15.8907 8.3686 17.9822 9.77166 19.6625L8.6472 21.2087M19.9511 5.32052L14.2656 13.3813L10.536 18.6072L8.6472 21.2087M8.6472 21.2087L7.12196 23.2667M34.2057 24.0917L34.5389 24.5259L35.0929 25.2113L35.2933 25.441C36.3701 26.6215 36.2689 28.4361 35.0674 29.4941C33.8659 30.5521 32.019 30.4527 30.9422 29.2722C30.9034 29.2297 30.8626 29.184 30.8197 29.1353L30.3797 28.6131L29.8319 27.9262L29.5032 27.4985C31.2432 26.5837 32.838 25.4291 34.2057 24.0917ZM23.8975 9.79358L25.3647 11.874L29.8131 18.1248L30.7192 19.3696C29.4745 20.766 27.8468 21.958 26.0243 22.793L23.9719 19.946L20.3471 14.8166L23.8975 9.79358Z" stroke="black" stroke-width="1.55963" stroke-linejoin="round"/>
</svg>
